PathFileType	4	(X/Y/Z)	69_2_77_p0_0-354.trc
DataRate	CameraRate	NumFrames	NumMarkers	Units	OrigDataRate	OrigDataStartFrame	OrigNumFrames
59.0	59.0	6	27	m	59.0	266	355
Frame#	Time	RHip			RKnee			RAnkle			RBigToe			RSmallToe			RHeel			LHip			LKnee			LAnkle			LBigToe			LSmallToe			LHeel			Neck			Head			Nose			RShoulder			RElbow			RWrist			RThumb			RIndex			RPinky			LShoulder			LElbow			LWrist			LThumb			LIndex			LPinky			
		X1	Y1	Z1	X2	Y2	Z2	X3	Y3	Z3	X4	Y4	Z4	X5	Y5	Z5	X6	Y6	Z6	X7	Y7	Z7	X8	Y8	Z8	X9	Y9	Z9	X10	Y10	Z10	X11	Y11	Z11	X12	Y12	Z12	X13	Y13	Z13	X14	Y14	Z14	X15	Y15	Z15	X16	Y16	Z16	X17	Y17	Z17	X18	Y18	Z18	X19	Y19	Z19	X20	Y20	Z20	X21	Y21	Z21	X22	Y22	Z22	X23	Y23	Z23	X24	Y24	Z24	X25	Y25	Z25	X26	Y26	Z26	X27	Y27	Z27	
266	4.508474576271187	0.28782536481131943	0.5880988336546275	0.509874228032459	0.24420397871180785	0.6125790463788412	0.9372654804243477	0.2160091303145662	0.630590862654325	1.339366719854559	0.24831610594680642	0.4692238875929296	1.3512953608809049	0.3088232542385751	0.4933452468385701	1.3388975864384838	0.15715919910438647	0.717007370495119	1.4092840793910915	0.09530767042194369	0.5287537719117973	0.5049627372231571	0.05299433406358698	0.5432433290948973	0.9113361078700738	0.029385494161031905	0.575627389336192	1.3342304741431574	0.11824060007507871	0.378608259469136	1.3016496526719061	0.06134528819290992	0.40559149817004025	1.3154257257794337	0.020771405675805776	0.6136446606075461	1.3933196035683157	0.21704092367536804	0.5270945551720291	-0.026026010479997193	0.25034418658698865	0.4849006757615205	-0.25979943561335034	0.25590077151694907	0.4514362754923262	-0.13840651182479421	0.36718706456982997	0.5601466928733432	0.06388584871838254	0.373438258278477	0.6388956765015922	0.34358351975214907	0.4268741399819014	0.5583109135271616	0.5563939764563159	0.37521439550830815	0.5390327018018797	0.6742684211322836	0.3816670387496579	0.5543947081024506	0.6904115819930983	0.3836172905622673	0.6433414374500704	0.7058813034116921	0.05733259715728274	0.49819585540101136	0.0530447813013175	0.031404737354409955	0.45576818315518614	0.31456790721649636	0.007366456791852641	0.40555049070580923	0.5235843961073543	0.039002752049309766	0.3959857424357515	0.6150537960088654	0.02276601997306745	0.3826203781836113	0.6478401890859193	-0.03623556593277622	0.43155956199484613	0.666293679773482
267	4.52542372881356	0.2963078533254549	0.5775275013135251	0.5059527708596798	0.24809684916393931	0.6158765445682877	0.9379836701920954	0.21483101405267402	0.6452326473012401	1.346917017458555	0.2572325952431708	0.45508542803094776	1.3374202330856957	0.3093629040422135	0.49050380250250675	1.3367379027261155	0.1570732557871379	0.7173425201410021	1.409326796980575	0.10502341280129539	0.517800152807409	0.5056857707876257	0.05289620733350992	0.541775459222249	0.9060184541540103	0.029284860109539936	0.5758871425617098	1.3342701677701319	0.11795871811099445	0.3791556319122369	1.3017428564962594	0.06116101713053928	0.4063739568554241	1.315460246994213	0.02074733490814334	0.6140664537327418	1.3932791883400502	0.2170172303594137	0.5272100512366348	-0.02599621604092663	0.2503591515872184	0.48492225261164934	-0.2597022975353354	0.25587619941281764	0.45146281751710593	-0.13833267807839708	0.367120804964998	0.5600879330474582	0.06397052837746336	0.3817074635448155	0.6257293249945753	0.32829687619700926	0.42767210112919435	0.5691705883860059	0.5511616034328995	0.3878866375709889	0.5422513907019633	0.6657312505683143	0.3997872239124861	0.5576281706955345	0.6821232689553478	0.38866601987885824	0.6454134758159237	0.7016128048852165	0.05729172734994558	0.4983412264903552	0.05302553072398315	0.02198236057689214	0.4681850135089953	0.31412630734781627	-0.02119094716697334	0.43648503002482925	0.5263591527461213	0.02054423307504065	0.4036947760851559	0.6108114590345255	-0.011613246974479905	0.41543597099431356	0.6530298667832181	-0.04370388565084983	0.44498551610109727	0.6621561068174199
268	4.5423728813559325	0.28795045448244216	0.5903337061221394	0.5061681956139688	0.2481203786816922	0.6161295939213264	0.9379622942021646	0.2197693843094656	0.6336045532149877	1.3401501326072454	0.2572475134429734	0.45495992128250745	1.3372726500654801	0.3093809531308475	0.4902793059931519	1.3366352987781724	0.1571147522485693	0.7171415555274391	1.4093920845633572	0.09634883127582837	0.5287786199150527	0.5060209810929522	0.052857517115378595	0.5432343507846276	0.911349258118963	0.028538434105943342	0.5772152648154336	1.330824940754092	0.1179085517207065	0.37912445908157266	1.3014780082862554	0.06255718099306418	0.4058761747919846	1.3110901727463962	0.02071505874175143	0.6141143514533102	1.393307608316996	0.21686258203954314	0.5283614898636183	-0.022156065403106384	0.2503665416708858	0.4849624547900321	-0.2597110213504236	0.25577363476835524	0.4524203275289955	-0.135061747825377	0.3638766634951603	0.5572779845339173	0.06371394671415029	0.3818493015693729	0.6245202524068418	0.323903989616102	0.4282755417839671	0.5691486467541124	0.5508722104164814	0.38781612137636606	0.5567612164549427	0.6737897908282627	0.40596633516982994	0.5856949031966968	0.690234658850648	0.3971066040628331	0.6329464034663391	0.6968261494223831	0.05735152953238045	0.4982612049784711	0.05297838035714551	0.013457884891325175	0.4674491760979271	0.3102827191054984	-0.0439129747545236	0.4560923569516896	0.5251845706531358	0.009788797434424056	0.41329049251681743	0.6098103360849869	-0.032761432431293314	0.4389168953684674	0.6532918824508372	-0.04626422787899778	0.4314122920226373	0.6452921153718103
269	4.559322033898305	0.2792056570889397	0.6030053964200998	0.5102686662609124	0.2479421135344029	0.6162368680287869	0.938204578733145	0.2159097423621195	0.6308758882578795	1.33946810786095	0.2558932243193314	0.468007162495726	1.3445038176129707	0.3092234146511017	0.49064227424824325	1.3367675851317045	0.15693213507747955	0.717279189648448	1.4093146770327156	0.09589105896573223	0.529484801200941	0.506282348024931	0.0546994617984853	0.5298632844628386	0.9061785696936573	0.0286289640286718	0.5771835346330569	1.3308918384249464	0.11773650969629706	0.3793502446793229	1.3014881893353867	0.062476612397494885	0.4059762312147982	1.3110361371722432	0.023835707274528793	0.618587990008991	1.3950716992032532	0.21680865914806474	0.5284177458072691	-0.022150170596717027	0.25037386254857613	0.4849548333232695	-0.2596445081113749	0.2558034581693119	0.452402062597848	-0.13508130735440824	0.3592876081741359	0.5719562330238526	0.06908944006650232	0.38223118857822813	0.6242232893175576	0.32725809508915443	0.4285155080632541	0.5699473521098442	0.5508690800992454	0.407763872861988	0.5584853189194822	0.6718528673977231	0.419333003834324	0.5772783806321681	0.6817343427732512	0.3971755092192052	0.6467750805488586	0.7007319568390845	0.057334905212439266	0.4981781587181119	0.053033975167797634	0.0015248918432896146	0.49163113725611374	0.31573680760816425	-0.04434127016676984	0.45652220064107296	0.5247638937292913	-0.015738160926687474	0.434347191983514	0.6184355496136033	-0.05559119007785842	0.45674990227371065	0.6537058389368351	-0.05381413880779245	0.4313139972540789	0.6399680898075799
270	4.576271186440678	0.2797195029350905	0.6030938445736451	0.5063491658286439	0.24746033582117463	0.6170996398591571	0.9341267424653752	0.21600978914979937	0.6304910614677683	1.3394158717306175	0.24814909342375804	0.4672935146547842	1.3459191035544649	0.31039878878399874	0.47898807713022556	1.3352597527334578	0.15707100572548838	0.7169042720555142	1.409397636102422	0.0959790637216922	0.5300901106182326	0.4988323396262012	0.05570403341797854	0.5299940155134907	0.9020374124580938	0.0286147775738709	0.5771787175642163	1.3308901203919157	0.10840279409125791	0.39053358232395396	1.3092293425073172	0.05243708829974582	0.4178045705515129	1.3191909116560019	0.025137991570000656	0.61863364557222	1.389682854160604	0.216880584408349	0.5274049630059284	-0.026063013541698172	0.25036465252829126	0.4849407162355117	-0.2596677789381458	0.2559246787795916	0.4514219672818155	-0.1382985442308942	0.35585090498791755	0.5691165849286967	0.0653904757604659	0.38190935218925726	0.6248591511681526	0.3230613088200056	0.43208516515272777	0.583499347533678	0.5497961639316025	0.41596840914334693	0.5597557529875808	0.6629637813103705	0.4278319605183711	0.5762033762920385	0.6759473092487222	0.4319287560783507	0.611252766675271	0.6812714436047097	0.05538410390970712	0.5103191948048853	0.0544814904835088	0.001052436218628162	0.49233035640388356	0.3119445652770901	-0.0450358241318551	0.4573733231382203	0.5204578707158988	-0.03356333352691412	0.45371485579423393	0.6256577095233798	-0.05546124363203696	0.4394868305380571	0.6455814382706846	-0.05332742381013508	0.43308933261655796	0.6305795636646738
271	4.593220338983051	0.2791124885282109	0.6016072128837657	0.5056614848781112	0.24909819413365436	0.6157543868825495	0.9332747358461231	0.21975556236618626	0.633564168122723	1.3399088866587188	0.24795583423122394	0.46756319405620156	1.3461047193841815	0.310005118489413	0.47761209031731505	1.3298366711794305	0.16114743785563362	0.7202447780565236	1.4100162457067162	0.0962189408156659	0.5303590519662057	0.49879859735151394	0.055624329823404255	0.5299565848764786	0.9018945531366925	0.02862829049930181	0.5772140505423592	1.3307871978478238	0.10832481448865765	0.39086450076148366	1.3094055192792424	0.05236689935826833	0.4179521004046173	1.3192223398655085	0.025380745446247056	0.6185434239883432	1.3894055219064394	0.21691557231423586	0.5273573506856222	-0.026081548085201807	0.25038106892729567	0.4849065524561598	-0.25967223273329704	0.2558529982901012	0.45215975134219494	-0.13518786036936328	0.35610847809717544	0.5685327165779328	0.06877004781897514	0.3819697889494362	0.6248844881797909	0.32288493946670666	0.44445572566449076	0.5743502196111713	0.5416976043919559	0.4279848078747292	0.5625707128263511	0.6622723213181921	0.42859560615225517	0.5768779320092313	0.6758658034806914	0.42799260560178454	0.6095867826903602	0.6813491902199695	0.06404891015726918	0.4995904406748054	0.052845750435633956	-0.003027992908643384	0.4900670059564516	0.31158794566612796	-0.048128459801835395	0.4518606036115859	0.5147768606309345	-0.0380967478733972	0.4477070392594422	0.6158186483614898	-0.05005463741081928	0.41122888085043635	0.6320250470459573	-0.05001541023393044	0.4187375597868414	0.6218248313117234
